<svg xmlns="http://www.w3.org/2000/svg" xmlns:xlink="http://www.w3.org/1999/xlink" width="30" height="26"><use fill="#BCC1FF" xlink:href="#path0_fill"/><defs><path id="path0_fill" fill-rule="evenodd" d="M2 2.677C2 1.217 3.206 0 4.667 0c1.46 0 2.666 1.216 2.666 2.677 0 .407-.094.79-.26 1.135L10.792 8h8.416l3.719-4.188a2.603 2.603 0 0 1-.26-1.135c0-1.46 1.205-2.677 2.666-2.677C26.794 0 28 1.216 28 2.677s-1.206 2.656-2.667 2.656c-.321 0-.63-.07-.916-.177L21.885 8H29c.524 0 1 .476 1 1v4c0 .524-.476 1-1 1h-.552l-2.48 9.906c-.158.635-.375 1.164-.812 1.563-.436.398-1.03.531-1.49.531H6.334c-.46 0-1.052-.133-1.49-.531-.436-.399-.653-.928-.812-1.563L1.552 14H1c-.524 0-1-.476-1-1V9c0-.524.476-1 1-1h7.114l-2.53-2.844a2.641 2.641 0 0 1-.917.177C3.206 5.333 2 4.138 2 2.677zm3.333 0A.66.66 0 0 0 4.667 2 .66.66 0 0 0 4 2.677c0 .38.287.656.667.656.38 0 .666-.276.666-.656zm20-.677a.66.66 0 0 1 .667.677c0 .38-.287.656-.666.656a.644.644 0 0 1-.667-.656.66.66 0 0 1 .666-.677zM28 10H2v2h26v-2zM3.614 14H7.48l1.667 10H6.333c-.103 0-.27-.135-.364-.583L3.614 14zM14 14H9.52l1.657 10H14V14zm2 0h4.48l-1.657 10H16V14zm10.386 0H22.52l-1.667 10h2.813c.103 0 .27-.135.364-.583L26.386 14z"/></defs></svg>