<svg xmlns="http://www.w3.org/2000/svg" xmlns:xlink="http://www.w3.org/1999/xlink" width="28" height="26"><g transform="translate(3302 -83)"><mask id="a"><path fill="#fff" d="M-2-2h7v7h-7z" transform="translate(-3300 85)"/><use transform="translate(-3300 85)" xlink:href="#path0_fill"/></mask><g mask="url(#a)"><use fill="#BCC1FF" transform="translate(-3300 85)" xlink:href="#path1_stroke_2x"/></g></g><g transform="translate(3302 -83)"><mask id="b"><path fill="#fff" d="M-2-2h20v7H-2z" transform="translate(-3292 85)"/><use transform="translate(-3292 85)" xlink:href="#path2_fill"/></mask><g mask="url(#b)"><use fill="#BCC1FF" transform="translate(-3292 85)" xlink:href="#path3_stroke_2x"/></g></g><g transform="translate(3302 -83)"><mask id="c"><path fill="#fff" d="M-2-2h7v7h-7z" transform="translate(-3300 94.778)"/><use transform="translate(-3300 94.778)" xlink:href="#path0_fill"/></mask><g mask="url(#c)"><use fill="#BCC1FF" transform="translate(-3300 94.778)" xlink:href="#path1_stroke_2x"/></g></g><g transform="translate(3302 -83)"><mask id="d"><path fill="#fff" d="M-2-2h20v7H-2z" transform="translate(-3292 94.778)"/><use transform="translate(-3292 94.778)" xlink:href="#path2_fill"/></mask><g mask="url(#d)"><use fill="#BCC1FF" transform="translate(-3292 94.778)" xlink:href="#path3_stroke_2x"/></g></g><g transform="translate(3302 -83)"><mask id="e"><path fill="#fff" d="M-2-2h28v7H-2z" transform="translate(-3300 103.741)"/><use transform="translate(-3300 103.741)" xlink:href="#path4_fill"/></mask><g mask="url(#e)"><use fill="#BCC1FF" transform="translate(-3300 103.741)" xlink:href="#path5_stroke_2x"/></g></g><defs><path id="path0_fill" fill-rule="evenodd" d="M0 0h3.2v3.26H0V0z"/><path id="path1_stroke_2x" d="M0 0v-1.6A1.6 1.6 0 0 0-1.6 0H0zm3.2 0h1.6a1.6 1.6 0 0 0-1.6-1.6V0zm0 3.26v1.6a1.6 1.6 0 0 0 1.6-1.6H3.2zm-3.2 0h-1.6A1.6 1.6 0 0 0 0 4.86v-1.6zM0 1.6h3.2v-3.2H0v3.2zM1.6 0v3.26h3.2V0H1.6zm1.6 1.66H0v3.2h3.2v-3.2zm-1.6 1.6V0h-3.2v3.26h3.2z"/><path id="path2_fill" fill-rule="evenodd" d="M0 0h16v3.26H0V0z"/><path id="path3_stroke_2x" d="M0 0v-1.6A1.6 1.6 0 0 0-1.6 0H0zm16 0h1.6A1.6 1.6 0 0 0 16-1.6V0zm0 3.26v1.6a1.6 1.6 0 0 0 1.6-1.6H16zm-16 0h-1.6A1.6 1.6 0 0 0 0 4.86v-1.6zM0 1.6h16v-3.2H0v3.2zM14.4 0v3.26h3.2V0h-3.2zM16 1.66H0v3.2h16v-3.2zM1.6 3.26V0h-3.2v3.26h3.2z"/><path id="path4_fill" fill-rule="evenodd" d="M0 0h24v3.26H0V0z"/><path id="path5_stroke_2x" d="M0 0v-1.6A1.6 1.6 0 0 0-1.6 0H0zm24 0h1.6A1.6 1.6 0 0 0 24-1.6V0zm0 3.26v1.6a1.6 1.6 0 0 0 1.6-1.6H24zm-24 0h-1.6A1.6 1.6 0 0 0 0 4.86v-1.6zM0 1.6h24v-3.2H0v3.2zM22.4 0v3.26h3.2V0h-3.2zM24 1.66H0v3.2h24v-3.2zM1.6 3.26V0h-3.2v3.26h3.2z"/></defs></svg>