<svg xmlns="http://www.w3.org/2000/svg" xmlns:xlink="http://www.w3.org/1999/xlink" width="11" height="11"><g transform="translate(1.14 1.139)"><use fill="#BCC1FF" xlink:href="#path0_fill"/><use fill="#BBC0FF" xlink:href="#path1_stroke"/></g><defs><path id="path0_fill" fill-rule="evenodd" d="M0 4.371c0 2.41 1.968 4.372 4.386 4.372 2.416 0 4.384-1.961 4.384-4.372C8.77 1.961 6.802 0 4.386 0 1.968 0 0 1.961 0 4.371z"/><path id="path1_stroke" d="M4.386 8.493C2.106 8.493.25 6.643.25 4.371h-.5c0 2.55 2.08 4.622 4.636 4.622v-.5zM8.52 4.371c0 2.272-1.855 4.122-4.134 4.122v.5c2.554 0 4.634-2.073 4.634-4.622h-.5zM4.386.25C6.666.25 8.52 2.1 8.52 4.371h.5C9.02 1.823 6.94-.25 4.386-.25v.5zM.25 4.371C.25 2.101 2.106.25 4.386.25v-.5C1.83-.25-.25 1.823-.25 4.371h.5z"/></defs></svg>