<svg xmlns="http://www.w3.org/2000/svg" xmlns:xlink="http://www.w3.org/1999/xlink" width="29" height="29"><g fill="#BCC1FF" transform="translate(1 1)"><use xlink:href="#path0_fill"/><use xlink:href="#path1_stroke"/></g><defs><path id="path0_fill" fill-rule="evenodd" d="M0 26.386c0 .322.292.614.614.614h17.18c.277 0 .614-.28.614-.614v-8.59a.638.638 0 0 0-.614-.623.638.638 0 0 0-.613.623v7.977H1.227V1.227h15.954v7.968a.638.638 0 0 0 .613.622.638.638 0 0 0 .614-.622V.614A.638.638 0 0 0 17.794 0H.614A.638.638 0 0 0 0 .614v25.772zm26.806-12.435a.621.621 0 0 0 0-.902l-3.681-3.375a.638.638 0 0 0-.868.034.638.638 0 0 0 .034.868l2.563 2.31H9.204a.638.638 0 0 0-.622.614c0 .324.298.618.622.614h15.65l-2.563 2.31a.638.638 0 0 0-.034.868.638.638 0 0 0 .868.034l3.681-3.375z"/><path id="path1_stroke" d="M18.408 17.796l-.5-.008v.008h.5zm-1.227 0h.5v-.008l-.5.008zm0 7.977v.5h.5v-.5h-.5zm-15.954 0h-.5v.5h.5v-.5zm0-24.546v-.5h-.5v.5h.5zm15.954 0h.5v-.5h-.5v.5zm0 7.968l.5.007v-.007h-.5zm1.227 0h-.5v.007l.5-.007zM17.794 0v-.5.5zM.614 0v-.5.5zm26.384 13.548l-.498-.041v.004l.498.037zm-.192.403l.338.368.005-.004-.343-.364zm0-.902l.342-.365-.004-.003-.338.368zm-3.681-3.375l-.34.367.002.002.338-.369zm-.868.034l.367.34-.367-.34zm.034.868l-.34.367.005.004.335-.371zm2.563 2.31v.5h1.302l-.967-.871-.335.371zm-15.65 0l-.007.5h.007v-.5zm0 1.228v-.5h-.007l.007.5zm15.65 0l.335.371.967-.871h-1.302v.5zm-2.563 2.31l-.335-.371-.005.004.34.367zm-.034.868l.367-.34-.367.34zm.868.034l-.338-.369-.002.002.34.367zM.614 26.5c-.01 0-.04-.006-.074-.04-.034-.034-.04-.065-.04-.074h-1c0 .598.516 1.114 1.114 1.114v-1zm17.18 0H.614v1h17.18v-1zm.114-.114c0-.003 0 .026-.046.068a.223.223 0 0 1-.059.04c-.019.009-.022.006-.009.006v1c.294 0 .565-.14.753-.317.192-.181.36-.459.36-.797h-1zm0-8.59v8.59h1v-8.59h-1zm-.114-.123c.009 0 .04.006.074.04.034.035.04.067.04.075l1 .015a1.137 1.137 0 0 0-1.114-1.13v1zm-.113.115c0-.008.005-.04.04-.074.033-.035.064-.04.073-.04v-1c-.603 0-1.122.526-1.113 1.129l1-.015zm0 7.985v-7.977h-1v7.977h1zm-16.454.5h15.954v-1H1.227v1zm-.5-25.046v24.546h1V1.227h-1zm16.454-.5H1.227v1h15.954v-1zm.5 8.468V1.227h-1v7.968h1zm.113.122c-.009 0-.04-.006-.074-.04-.034-.035-.04-.066-.04-.075l-1-.014c-.008.603.511 1.13 1.114 1.13v-1zm.114-.115c0 .009-.006.04-.04.075-.034.034-.065.04-.074.04v1c.603 0 1.122-.526 1.114-1.13l-1 .015zm0-8.588v8.58h1V.615h-1zM17.794.5c.009 0 .04.006.074.04.034.034.04.065.04.074h1c0-.598-.516-1.114-1.114-1.114v1zM.614.5h17.18v-1H.614v1zM.5.614C.5.604.506.574.54.54.574.506.605.5.614.5v-1C.015-.5-.5.016-.5.614h1zm0 25.772V.614h-1v25.772h1zm26-12.875c.003.06.013.04-.036.075l.685.729c.172-.174.321-.487.348-.73l-.998-.074zm-.036-.097c.023.021.038.06.036.093l.996.082a1.124 1.124 0 0 0-.348-.905l-.684.73zm-3.677-3.371l3.681 3.375.676-.737-3.681-3.375-.676.737zm-.163.004c.006-.006.032-.025.08-.027.048-.002.075.015.081.021l.68-.734a1.137 1.137 0 0 0-1.575.061l.734.68zm.006.162c-.006-.006-.025-.032-.027-.08-.002-.048.015-.075.02-.081l-.733-.68a1.137 1.137 0 0 0 .06 1.575l.68-.734zm2.559 2.306l-2.564-2.31-.67.742 2.565 2.31.669-.742zm-15.985.871h15.65v-1H9.204v1zm-.122.114c0-.009.005-.04.04-.074.035-.034.066-.04.075-.04l.014-1A1.137 1.137 0 0 0 8.08 13.5h1zm.115.114c-.009 0-.04-.006-.075-.04-.034-.034-.04-.065-.04-.074h-1c0 .603.526 1.122 1.129 1.114l-.014-1zm15.657 0H9.204v1h15.65v-1zm-2.229 3.182l2.564-2.311-.67-.743-2.563 2.31.67.744zm-.001.156c-.006-.006-.023-.033-.02-.081 0-.048.02-.074.026-.08l-.68-.734a1.137 1.137 0 0 0-.06 1.575l.734-.68zm.161.007c-.006.006-.033.022-.081.02-.049-.001-.074-.02-.08-.026l-.734.679a1.137 1.137 0 0 0 1.574.06l-.679-.733zm3.683-3.377l-3.681 3.375.676.737 3.681-3.375-.676-.737z"/></defs></svg>