<svg width="16" height="21" xmlns="http://www.w3.org/2000/svg" xmlns:xlink="http://www.w3.org/1999/xlink"><use xlink:href="#path0_fill" transform="translate(.8 .4)" fill="#7881FE"/><defs><path id="path0_fill" fill-rule="evenodd" d="M7.019 0c5.312 0 7.38 3.797 7.38 7.323 0 .073-.001.147-.003.22l.002.035.001.032c.078 5.324-5.648 12.79-7.129 12.79C5.79 20.4 0 13.433 0 7.61c0-.03.003-.059.004-.088L.003 7.5 0 7.323C0 3.887 1.706 0 7.019 0zM3.817 7.314c0 1.508.87 3.297 3.321 3.42 2.537.127 3.444-1.763 3.444-3.42 0-1.656-.971-3.44-3.467-3.44S3.817 5.7 3.817 7.314z"/></defs></svg>